<svg xmlns="http://www.w3.org/2000/svg" width="130" height="69" viewBox="0 0 130 69.1"><style>.a{fill:#CE3335;}.b{fill:#676767;}</style><path d="M15.5 39.5h-4.6v15.1c0 0.9-0.2 1.5-0.6 1.9s-0.9 0.6-1.5 0.6c-0.6 0-1.1-0.2-1.5-0.6 -0.4-0.4-0.6-1.1-0.6-1.9V39.5H2.1c-0.7 0-1.2-0.2-1.6-0.5C0.2 38.7 0 38.3 0 37.7c0-0.5 0.2-1 0.5-1.3 0.4-0.3 0.9-0.5 1.6-0.5h13.4c0.7 0 1.3 0.2 1.6 0.5 0.4 0.3 0.5 0.7 0.5 1.3 0 0.5-0.2 0.9-0.5 1.3S16.2 39.5 15.5 39.5z"/><path d="M36.7 39.2h-9.5v5.1h8.7c0.6 0 1.1 0.1 1.4 0.4 0.3 0.3 0.5 0.7 0.5 1.1 0 0.5-0.2 0.9-0.5 1.2 -0.3 0.3-0.8 0.4-1.4 0.4h-8.7v5.9h9.8c0.7 0 1.2 0.2 1.5 0.5s0.5 0.7 0.5 1.2c0 0.5-0.2 0.9-0.5 1.2s-0.8 0.5-1.5 0.5h-11.4c-0.9 0-1.6-0.2-2-0.6 -0.4-0.4-0.6-1.1-0.6-2V38.6c0-0.6 0.1-1.1 0.3-1.5 0.2-0.4 0.5-0.7 0.8-0.8 0.4-0.2 0.9-0.3 1.5-0.3h11.1c0.7 0 1.2 0.1 1.5 0.4 0.3 0.3 0.5 0.7 0.5 1.2 0 0.5-0.2 0.9-0.5 1.2C37.9 39.1 37.4 39.2 36.7 39.2z"/><path d="M58.7 39.5h-4.6v15.1c0 0.9-0.2 1.5-0.6 1.9s-0.9 0.6-1.5 0.6c-0.6 0-1.1-0.2-1.5-0.6 -0.4-0.4-0.6-1.1-0.6-1.9V39.5h-4.6c-0.7 0-1.2-0.2-1.6-0.5s-0.5-0.7-0.5-1.3c0-0.5 0.2-1 0.5-1.3 0.4-0.3 0.9-0.5 1.6-0.5h13.4c0.7 0 1.3 0.2 1.6 0.5 0.4 0.3 0.5 0.7 0.5 1.3 0 0.5-0.2 0.9-0.5 1.3S59.4 39.5 58.7 39.5z"/><path d="M83.2 50.2c0 0.7-0.2 1.4-0.5 2.1 -0.3 0.8-0.8 1.5-1.5 2.3 -0.7 0.7-1.6 1.3-2.7 1.8s-2.3 0.7-3.8 0.7c-1.1 0-2.1-0.1-3-0.3 -0.9-0.2-1.7-0.5-2.4-1s-1.4-1-2-1.7c-0.5-0.6-1-1.4-1.4-2.2s-0.7-1.7-0.9-2.6 -0.3-1.9-0.3-2.9c0-1.7 0.2-3.2 0.7-4.5 0.5-1.3 1.2-2.4 2.1-3.4 0.9-0.9 2-1.7 3.2-2.1 1.2-0.5 2.5-0.7 3.9-0.7 1.7 0 3.2 0.3 4.5 1 1.3 0.7 2.3 1.5 3 2.5 0.7 1 1 1.9 1 2.8 0 0.5-0.2 0.9-0.5 1.3 -0.3 0.4-0.7 0.6-1.2 0.6 -0.5 0-0.9-0.1-1.2-0.4 -0.3-0.3-0.6-0.7-0.9-1.3 -0.5-1-1.2-1.8-1.9-2.3 -0.7-0.5-1.7-0.8-2.7-0.8 -1.7 0-3.1 0.7-4.1 2 -1 1.3-1.5 3.2-1.5 5.6 0 1.6 0.2 3 0.7 4 0.5 1.1 1.1 1.9 1.9 2.4 0.8 0.5 1.8 0.8 2.9 0.8 1.2 0 2.2-0.3 3.1-0.9 0.8-0.6 1.5-1.5 1.9-2.6 0.2-0.5 0.4-1 0.7-1.3 0.3-0.3 0.7-0.5 1.3-0.5 0.5 0 0.9 0.2 1.3 0.5C83 49.2 83.2 49.7 83.2 50.2z"/><path d="M130 50.5c0 1.3-0.3 2.4-1 3.4s-1.6 1.8-2.8 2.3c-1.2 0.6-2.7 0.9-4.4 0.9 -2 0-3.7-0.4-5.1-1.2 -0.9-0.6-1.7-1.3-2.3-2.2 -0.6-0.9-0.9-1.8-0.9-2.7 0-0.5 0.2-0.9 0.5-1.3 0.4-0.4 0.8-0.5 1.4-0.5 0.4 0 0.8 0.1 1.1 0.4s0.6 0.7 0.8 1.3c0.3 0.7 0.6 1.2 0.9 1.7s0.7 0.8 1.3 1.1 1.3 0.4 2.2 0.4c1.2 0 2.3-0.3 3-0.9s1.2-1.3 1.2-2.2c0-0.7-0.2-1.2-0.6-1.7 -0.4-0.4-1-0.8-1.6-1s-1.6-0.5-2.7-0.7c-1.5-0.3-2.7-0.8-3.7-1.2 -1-0.5-1.8-1.1-2.4-1.9 -0.6-0.8-0.9-1.8-0.9-3 0-1.1 0.3-2.2 0.9-3 0.6-0.9 1.5-1.6 2.7-2 1.2-0.5 2.6-0.7 4.2-0.7 1.3 0 2.4 0.2 3.3 0.5 0.9 0.3 1.7 0.7 2.3 1.3 0.6 0.5 1.1 1.1 1.3 1.6 0.3 0.6 0.4 1.1 0.4 1.7 0 0.5-0.2 1-0.5 1.4 -0.4 0.4-0.8 0.6-1.3 0.6 -0.5 0-0.8-0.1-1.1-0.4 -0.2-0.2-0.5-0.6-0.8-1.2 -0.4-0.8-0.8-1.4-1.4-1.8 -0.5-0.4-1.4-0.7-2.5-0.7 -1.1 0-2 0.2-2.6 0.7 -0.7 0.5-1 1.1-1 1.7 0 0.4 0.1 0.8 0.3 1.1 0.2 0.3 0.5 0.6 0.9 0.8 0.4 0.2 0.8 0.4 1.2 0.5 0.4 0.1 1.1 0.3 2 0.5 1.2 0.3 2.2 0.6 3.2 0.9 0.9 0.3 1.8 0.7 2.4 1.2 0.7 0.5 1.2 1.1 1.6 1.8C129.8 48.6 130 49.5 130 50.5z"/><circle cx="98.8" cy="45.8" r="5.3"/><path d="M98.2 57.8c-3.1 0-6.1-1.2-8.3-3.4 -0.8-0.8-0.8-2.1-0.1-2.9 0.8-0.8 2.1-0.8 2.9-0.1 1.5 1.4 3.4 2.2 5.5 2.2 4.4 0 7.9-3.5 7.9-7.9 0-4.4-3.5-7.9-7.9-7.9 -2.4 0-4.6 1.1-6.1 2.9 -0.7 0.9-2 1-2.9 0.3s-1-2-0.3-2.9c2.3-2.8 5.7-4.4 9.3-4.4 6.6 0 12 5.4 12 12S104.8 57.8 98.2 57.8z" fill="#FCCC10"/><path d="M88.1 34c-0.6 0-1.2-0.3-1.6-0.8 -0.7-0.9-0.6-2.2 0.3-2.9 3.5-2.9 8-4.4 12.5-4.4 4.3 0 8.4 1.3 11.8 3.9 0.9 0.7 1.1 2 0.4 2.9 -0.7 0.9-2 1.1-2.9 0.4 -2.7-2-6-3.1-9.4-3.1 -3.6 0-7.1 1.2-9.9 3.5C89 33.9 88.5 34 88.1 34z" class="a"/><path d="M80.4 23.9c-0.6 0-1.2-0.3-1.6-0.8 -0.7-0.9-0.6-2.2 0.3-2.9 5.8-4.6 12.7-7 20.1-7 7.1 0 13.8 2.2 19.4 6.4 0.9 0.7 1.1 2 0.4 2.9 -0.7 0.9-2 1.1-2.9 0.4 -4.9-3.7-10.8-5.6-17-5.6 -6.4 0-12.5 2.1-17.5 6.1C81.3 23.8 80.9 23.9 80.4 23.9z" class="a"/><path d="M73.5 13.2c-0.6 0-1.2-0.3-1.6-0.8 -0.7-0.9-0.5-2.2 0.4-2.9C80.2 3.3 89.9 0 100.1 0c9.9 0 19.3 3.1 27.2 9 0.9 0.7 1.1 2 0.4 2.9 -0.7 0.9-2 1.1-2.9 0.4 -7.2-5.4-15.7-8.2-24.7-8.2 -9.3 0-18 3-25.3 8.7C74.4 13.1 73.9 13.2 73.5 13.2z" class="a"/><path d="M59.4 63.8v4.3h2.4c0.2 0 0.3 0 0.4 0.1 0.1 0.1 0.2 0.2 0.2 0.4 0 0.1-0.1 0.3-0.2 0.4 -0.1 0.1-0.2 0.1-0.4 0.1H58.9c-0.3 0-0.4-0.1-0.6-0.2s-0.2-0.3-0.2-0.6v-4.5c0-0.2 0.1-0.4 0.2-0.5 0.1-0.1 0.3-0.2 0.4-0.2 0.2 0 0.3 0.1 0.4 0.2C59.3 63.4 59.4 63.5 59.4 63.8z" class="b"/><path d="M65.1 63.8v4.3h2.4c0.2 0 0.3 0 0.4 0.1 0.1 0.1 0.2 0.2 0.2 0.4 0 0.1-0.1 0.3-0.2 0.4 -0.1 0.1-0.2 0.1-0.4 0.1h-2.9c-0.3 0-0.4-0.1-0.6-0.2s-0.2-0.3-0.2-0.6v-4.5c0-0.2 0.1-0.4 0.2-0.5 0.1-0.1 0.3-0.2 0.4-0.2 0.2 0 0.3 0.1 0.4 0.2C65.1 63.4 65.1 63.5 65.1 63.8z" class="b"/><path d="M72 66.7h-1.1v1.7c0 0.2-0.1 0.4-0.2 0.5 -0.1 0.1-0.3 0.2-0.4 0.2 -0.2 0-0.3-0.1-0.4-0.2s-0.2-0.3-0.2-0.5v-4.5c0-0.3 0.1-0.4 0.2-0.6 0.1-0.1 0.3-0.2 0.6-0.2h1.5c0.5 0 0.8 0 1 0.1 0.2 0.1 0.4 0.2 0.6 0.3s0.3 0.3 0.4 0.6c0.1 0.2 0.1 0.5 0.1 0.8 0 0.6-0.2 1.1-0.6 1.4C73.3 66.6 72.7 66.7 72 66.7zM71.7 64.1h-0.8v1.8h0.8c0.3 0 0.5 0 0.7-0.1s0.3-0.2 0.4-0.3c0.1-0.1 0.1-0.3 0.1-0.5 0-0.3-0.1-0.5-0.2-0.6C72.6 64.1 72.3 64.1 71.7 64.1z" class="b"/><rect x="81.2" y="65.3" width="48.5" height="0.5" class="b"/><rect x="4.3" y="65.3" width="48.5" height="0.5" class="b"/></svg>